<svg width="310" height="240" viewBox="0 0 310 240" fill="none" xmlns="http://www.w3.org/2000/svg">
<rect x="0.5" y="0.5" width="309" height="239" rx="24.5" fill="white" stroke="#D9D9D9"/>
<path d="M203.655 93.562C203.973 93.562 204.29 93.5563 204.61 93.5448C217.407 93.0933 227.254 83.5743 227.666 83.1714L228.783 82.0769L227.592 81.0653C227.151 80.6909 216.678 71.9092 203.861 72.3464C199 72.5179 194.568 74.001 190.913 75.7928C191.793 74.1011 192.545 72.2207 192.993 70.1603C194.905 61.4043 190.681 53.1855 190.501 52.8398L189.71 51.3252L188.361 52.3711C188.09 52.5797 182.437 57.0349 179.779 64.0648C179.839 53.7028 182.283 44.9325 182.308 44.8439L182.363 44.4553C182.363 42.5692 181.894 41.2061 180.934 40.2916C179.396 38.8313 177.153 38.9428 174.555 39.0714C173.792 39.1114 172.987 39.1514 172.155 39.1514H166.611C165.777 39.1514 164.974 39.1114 164.211 39.0714C161.624 38.9399 159.372 38.8313 157.832 40.2916C156.872 41.2061 156.403 42.5663 156.403 44.4553L156.463 44.8582C156.489 44.9439 158.992 53.5856 158.992 64.4449C158.992 75.3041 156.489 83.9458 156.463 84.0316L156.403 84.4345C156.403 86.272 156.855 87.6037 157.766 88.5153C156.855 89.4269 156.403 90.7586 156.403 92.5961L156.463 92.999C156.489 93.0848 158.992 101.726 158.992 112.586C158.992 115.278 158.821 117.79 158.589 120.11C151.537 124.154 146.753 130.206 144.17 134.158C143.921 131.767 143.749 129.146 143.749 126.414C143.749 115.886 146.259 106.902 146.284 106.813L146.339 106.425C146.339 104.624 145.898 103.312 145.024 102.401C145.898 101.489 146.339 100.18 146.339 98.3801L146.284 97.9886C146.259 97.9 143.749 88.9382 143.749 78.3905C143.749 67.8627 146.259 58.8809 146.284 58.7924L146.339 58.4037C146.339 56.5176 145.87 55.1545 144.91 54.24C143.369 52.7769 141.129 52.8855 138.531 53.0198C137.768 53.0598 136.962 53.0998 136.131 53.0998H130.587C129.752 53.0998 128.949 53.0598 128.186 53.0198C125.594 52.8912 123.345 52.7769 121.808 54.24C120.848 55.1545 120.379 56.5148 120.379 58.4037L120.439 58.8066C120.459 58.8781 122.228 64.9993 122.791 73.3923C122.534 72.4636 122.22 71.532 121.819 70.6089C118.256 62.3845 110.029 58.1779 109.68 58.0036L108.154 57.2349L107.668 58.8724C107.594 59.1238 106.434 63.1846 106.734 68.3028C95.7372 61.7501 82.3117 64.4049 81.7488 64.5249L80.217 64.8392L80.6686 66.3367C80.8343 66.8882 84.8837 79.9708 95.8772 86.5292C101.881 90.1099 108.611 90.9443 113.578 90.9443C113.866 90.9443 114.135 90.9358 114.412 90.9301C111.375 91.9703 107.757 93.7277 104.762 96.7055C98.4092 103.027 97.4976 112.223 97.4633 112.611L97.3061 114.312L99.0093 114.163C99.3979 114.129 108.597 113.269 114.952 106.947C117.599 104.313 119.293 101.186 120.379 98.3972C120.382 100.189 120.822 101.495 121.694 102.404C120.819 103.315 120.379 104.627 120.379 106.427L120.439 106.83C120.465 106.916 122.968 115.558 122.968 126.417C122.968 137.273 120.465 145.915 120.439 146.004L120.379 146.407C120.379 148.244 120.831 149.576 121.742 150.487C120.831 151.399 120.379 152.731 120.379 154.568L120.439 154.971C120.465 155.057 122.968 163.699 122.968 174.558C122.968 185.417 120.465 194.059 120.439 194.144L120.379 194.547C120.379 196.433 120.848 197.794 121.808 198.708C122.917 199.763 124.394 200 126.109 200C126.769 200 127.463 199.966 128.186 199.928C128.949 199.888 129.755 199.848 130.587 199.848H136.131C136.965 199.848 137.771 199.888 138.531 199.928C141.132 200.06 143.375 200.169 144.91 198.708C145.87 197.794 146.339 196.433 146.339 194.547L146.284 194.156C146.259 194.067 143.749 185.106 143.749 174.558C143.749 164.03 146.259 155.045 146.284 154.957L146.339 154.568C146.339 152.731 145.887 151.399 144.975 150.487C145.278 150.184 145.516 149.822 145.716 149.424C149.185 156.62 155.512 166.656 165.879 173.023C175.659 179.033 186.749 180.368 194.682 180.368C200.726 180.368 204.936 179.59 205.327 179.516L206.865 179.222L206.433 177.718C206.182 176.838 200.049 156.054 182.811 145.466C177.71 142.332 172.269 140.494 167.097 139.437C168.148 139.085 169.2 138.694 170.246 138.219C170.48 138.114 170.698 137.988 170.929 137.876H172.158C172.992 137.876 173.798 137.916 174.558 137.956C175.281 137.994 175.976 138.028 176.636 138.028C178.35 138.028 179.828 137.791 180.937 136.736C181.897 135.822 182.366 134.461 182.366 132.575L182.311 132.184C182.303 132.158 182.071 131.309 181.754 129.892C186.929 124.522 189.57 119.15 189.738 118.801L190.479 117.261L188.833 116.804C188.541 116.721 184.966 115.761 179.885 115.503C179.839 114.538 179.776 113.592 179.776 112.586C179.776 102.058 182.286 93.0733 182.311 92.9847L182.366 92.5961C182.366 90.7586 181.914 89.4269 181.002 88.5153C181.651 87.8637 182.06 86.995 182.246 85.8862C185.42 88.2152 193.773 93.562 203.655 93.562ZM105.288 70.7575C105.979 71.1691 106.614 71.6377 107.242 72.1092C107.537 73.5095 107.957 74.9355 108.565 76.3444C110.151 80.0022 112.655 82.8599 114.981 84.926L85.0923 66.9561C89.4103 66.5482 98.0262 66.431 105.288 70.7575ZM84.375 68.037L95.48 74.7126L89.4188 76.7587C86.9298 73.4859 85.2952 70.2146 84.375 68.037ZM94.5627 82.1369C92.9252 80.8252 91.5078 79.3535 90.2619 77.8446L96.9374 75.5899L103.204 79.3592L94.5627 82.1369ZM97.3461 84.0716C96.8374 83.7687 96.3888 83.4086 95.9087 83.0714L104.453 80.3223C104.522 80.2994 104.548 80.2365 104.602 80.1965L110.877 83.9716L103.147 86.5835C101.187 85.9884 99.2179 85.1889 97.3461 84.0716ZM105.465 87.1722L112.169 84.906C112.218 84.8889 112.235 84.8374 112.278 84.8117L117.39 87.8866C114.615 88.1374 110.189 88.2152 105.465 87.1722ZM112.941 104.918C108.928 108.911 103.436 110.46 100.612 111.023C101.184 108.205 102.756 102.732 106.782 98.7287C110.794 94.7394 116.281 93.1876 119.107 92.6247C118.53 95.4481 116.953 100.926 112.941 104.918ZM119.916 85.1432C117.499 83.5743 112.975 80.1022 110.726 74.9098C108.474 69.7173 109.037 64.0391 109.548 61.2043C111.963 62.7646 116.478 66.2281 118.736 71.4405C120.988 76.633 120.425 82.3084 119.916 85.1432ZM123.24 106.23C123.26 105.287 123.44 104.65 123.777 104.33C124.429 103.715 126.183 103.801 128.044 103.895C128.852 103.935 129.707 103.978 130.587 103.978H136.131C137.014 103.978 137.868 103.935 138.677 103.895C140.537 103.801 142.295 103.715 142.944 104.33C143.281 104.65 143.461 105.29 143.481 106.236C143.086 107.685 140.895 116.232 140.895 126.414C140.895 131.172 141.378 135.564 141.926 139.051L141.938 139.122C142.563 143.055 143.272 145.821 143.481 146.587C143.461 147.533 143.278 148.173 142.944 148.493C142.292 149.11 140.535 149.024 138.677 148.927C137.868 148.887 137.014 148.844 136.131 148.844H130.587C129.704 148.844 128.852 148.887 128.044 148.927C126.183 149.021 124.426 149.107 123.777 148.493C123.443 148.173 123.263 147.535 123.24 146.592C123.643 145.149 125.826 136.879 125.826 126.411C125.826 115.941 123.643 107.67 123.24 106.23ZM143.484 194.73C143.464 195.673 143.284 196.313 142.946 196.634C142.298 197.251 140.54 197.165 138.68 197.068C137.871 197.028 137.017 196.985 136.134 196.985H130.59C129.707 196.985 128.852 197.028 128.044 197.068C126.189 197.162 124.429 197.248 123.777 196.634C123.443 196.313 123.263 195.676 123.24 194.736C123.643 193.293 125.826 185.023 125.826 174.555C125.826 164.087 123.643 155.814 123.24 154.374C123.26 153.434 123.44 152.796 123.777 152.476C124.429 151.859 126.189 151.948 128.044 152.042C128.852 152.082 129.707 152.125 130.59 152.125H136.134C137.017 152.125 137.871 152.082 138.68 152.042C140.54 151.945 142.298 151.862 142.946 152.476C143.284 152.796 143.464 153.437 143.484 154.38C143.089 155.828 140.897 164.376 140.897 174.558C140.897 184.739 143.089 193.284 143.484 194.73ZM143.484 98.5658C143.464 99.5117 143.284 100.149 142.946 100.469C142.298 101.086 140.543 101.003 138.68 100.906C137.871 100.863 137.017 100.823 136.134 100.823H130.59C129.707 100.823 128.852 100.866 128.044 100.906C126.189 101.003 124.429 101.086 123.78 100.469C123.445 100.152 123.265 99.5146 123.243 98.5715C123.646 97.1284 125.829 88.8582 125.829 78.3905C125.829 67.9227 123.646 59.6525 123.243 58.2094C123.263 57.2663 123.443 56.6291 123.78 56.309C124.431 55.6917 126.186 55.7803 128.046 55.8746C128.855 55.9146 129.71 55.9575 130.59 55.9575H136.134C137.017 55.9575 137.871 55.9146 138.68 55.8746C140.54 55.7832 142.298 55.6917 142.946 56.309C143.281 56.6291 143.464 57.2692 143.484 58.2151C143.089 59.664 140.897 68.2113 140.897 78.3905C140.897 88.5696 143.089 97.117 143.484 98.5658ZM177.007 115.449C172.361 115.492 166.897 116.224 161.607 118.573C161.753 116.681 161.859 114.695 161.859 112.583C161.859 102.112 159.675 93.842 159.272 92.4018C159.29 91.4587 159.467 90.8215 159.804 90.5014C160.453 89.8841 162.21 89.9727 164.071 90.067C164.879 90.107 165.734 90.1499 166.617 90.1499H172.161C173.044 90.1499 173.898 90.107 174.707 90.067C176.562 89.9756 178.322 89.887 178.973 90.5014C179.311 90.8215 179.491 91.4616 179.511 92.4046C179.116 93.8535 176.924 102.401 176.924 112.583C176.924 113.566 176.967 114.506 177.007 115.449ZM172.707 118.593L170.515 125.625L164.216 128.377L166.728 119.77C168.749 119.19 170.763 118.807 172.707 118.593ZM159.267 44.2581C159.287 43.315 159.467 42.6778 159.804 42.3577C160.453 41.7405 162.21 41.829 164.071 41.9233C164.879 41.9634 165.734 42.0062 166.614 42.0062H172.158C173.041 42.0062 173.892 41.9634 174.701 41.9233C176.562 41.8319 178.319 41.7405 178.968 42.3577C179.305 42.6778 179.485 43.3179 179.505 44.2638C179.111 45.7127 176.919 54.26 176.919 64.4392C176.919 74.6183 179.113 83.1685 179.505 84.6174C179.485 85.5633 179.305 86.2034 178.968 86.5235C178.316 87.1407 176.562 87.0522 174.701 86.9578C173.892 86.9178 173.038 86.875 172.158 86.875H166.614C165.731 86.875 164.879 86.9178 164.071 86.9578C162.21 87.0522 160.453 87.1407 159.804 86.5235C159.47 86.2034 159.29 85.5662 159.267 84.6231C159.67 83.18 161.853 74.9098 161.853 64.442C161.853 53.9714 159.67 45.7012 159.267 44.2581ZM162.562 121.265C163.442 120.864 164.339 120.559 165.231 120.253L162.662 129.055L155.626 132.127L158.158 123.779C159.538 122.853 160.981 121.982 162.562 121.265ZM156.446 124.967L154.097 132.712C154.089 132.74 154.109 132.763 154.106 132.792L146.267 136.215C148.17 133.238 151.585 128.675 156.446 124.967ZM181.317 147.898C194.959 156.28 201.409 171.974 203.17 176.95C197.937 177.627 181.042 178.979 167.38 170.583C153.737 162.201 147.287 146.507 145.527 141.531C150.754 140.851 167.651 139.502 181.317 147.898ZM178.971 134.661C178.428 135.175 177.107 135.195 175.61 135.135C176.956 134.201 178.208 133.209 179.359 132.183C179.416 132.409 179.476 132.635 179.508 132.758C179.485 133.701 179.305 134.344 178.971 134.661ZM169.066 135.613C160.07 139.694 150.176 138.591 145.838 137.805L185.432 120.55C182.84 124.628 177.347 131.861 169.066 135.613ZM185.592 119.041L172.084 124.94L174.098 118.473C178.902 118.112 183.086 118.598 185.592 119.041ZM185.023 84.3202L192.742 84.0373C192.765 84.0801 192.756 84.1344 192.79 84.1716L198.209 90.1042C192.47 88.8982 187.692 86.1291 185.023 84.3202ZM204.51 90.69C203.058 90.7443 201.652 90.6271 200.269 90.4414L194.368 83.9801L202.098 83.6972C202.087 83.8658 202.138 84.0401 202.261 84.1744L207.885 90.3357C206.79 90.5243 205.662 90.6471 204.51 90.69ZM209.334 89.9927L203.538 83.6458L210.631 83.3857L214.952 88.1181C213.217 88.8839 211.334 89.5269 209.334 89.9927ZM216.186 87.5465L212.329 83.32L223.568 82.9085C221.913 84.2173 219.367 85.9941 216.186 87.5465ZM203.964 75.1956C212.454 74.8926 219.959 79.1849 223.528 81.614L185.569 83.0028C186.035 82.537 186.555 81.9826 187.098 81.3568C190.956 78.7105 197.063 75.4413 203.964 75.1956ZM181.674 67.6827C182.88 62.1559 186.652 57.8779 188.721 55.8718C189.767 58.5552 191.413 64.0191 190.207 69.5459C189.33 73.5581 187.109 76.8959 185.163 79.2021C184.32 79.7936 183.586 80.3508 182.971 80.8424C181.928 78.0161 180.537 72.8944 181.674 67.6827Z" fill="#363635"/>
<path d="M127.509 60.1783C128.978 66.6825 129.327 73.1952 128.598 79.8136C128.484 80.8481 130.104 80.8395 130.218 79.8136C130.964 73.0408 130.573 66.3881 129.072 59.7468C128.841 58.7295 127.278 59.1603 127.509 60.1783Z" fill="#363635"/>
<path d="M163.493 94.1249C164.962 100.626 165.311 107.139 164.582 113.76C164.468 114.795 166.088 114.786 166.202 113.76C166.948 106.987 166.557 100.335 165.056 93.6934C164.828 92.6761 163.265 93.1076 163.493 94.1249Z" fill="#363635"/>
<path d="M128.512 82.9399C128.312 85.0289 128.135 87.1207 127.981 89.2154C127.904 90.2556 129.524 90.2499 129.601 89.2154C129.755 87.1207 129.933 85.0318 130.133 82.9399C130.233 81.9026 128.612 81.9083 128.512 82.9399Z" fill="#363635"/>
</svg>